<svg width="256" height="256" viewBox="0 0 256 256" fill="none" xmlns="http://www.w3.org/2000/svg">
<path d="M0 128C0 57.3076 57.3076 0 128 0V0C198.692 0 256 57.3076 256 128V128C256 198.692 198.692 256 128 256V256C57.3076 256 0 198.692 0 128V128Z" fill="white"/>
<mask id="path-2-inside-1_4_2" fill="white">
<path d="M74.5273 36C83.0614 36 89.9803 42.9181 89.9805 51.4521C89.9805 53.1487 89.7054 54.7814 89.2002 56.3086H106.938C110.251 56.3086 112.937 58.9951 112.938 62.3086V75.7354H115.066C115.153 75.7354 115.24 75.7364 115.326 75.7383C115.413 75.7368 115.5 75.7354 115.587 75.7354H116.47C124.76 75.7354 131.481 82.4557 131.481 90.7461C131.481 99.0365 124.76 105.757 116.47 105.757H115.587C115.5 105.757 115.413 105.754 115.326 105.753C115.24 105.755 115.153 105.757 115.066 105.757H112.938V121.832C112.937 125.146 110.251 127.832 106.938 127.832H43C39.6864 127.832 37.0002 125.146 37 121.832V105.757H40.0107C40.0975 105.757 40.1842 105.755 40.2705 105.753C40.3575 105.754 40.4449 105.757 40.5322 105.757H41.415C49.7052 105.757 56.4256 99.0363 56.4258 90.7461C56.4255 82.4559 49.7052 75.7344 41.415 75.7344H40.5322C40.4449 75.7344 40.3575 75.7358 40.2705 75.7373C40.1842 75.7355 40.0975 75.7344 40.0107 75.7344H37V62.3086C37.0002 58.9951 39.6864 56.3086 43 56.3086H59.8545C59.3493 54.7814 59.0752 53.1487 59.0752 51.4521C59.0754 42.9182 65.9934 36.0001 74.5273 36Z"/>
</mask>
<path d="M74.5273 36L74.5273 32L74.5273 32L74.5273 36ZM89.9805 51.4521L93.9805 51.4521L93.9805 51.4521L89.9805 51.4521ZM89.2002 56.3086L85.4026 55.0524L83.6639 60.3086H89.2002V56.3086ZM112.938 62.3086L116.938 62.3086L116.937 62.3083L112.938 62.3086ZM112.938 75.7354H108.938V79.7354H112.938V75.7354ZM115.066 75.7354L115.067 71.7354H115.066V75.7354ZM115.326 75.7383L115.241 79.7374L115.318 79.739L115.394 79.7377L115.326 75.7383ZM115.587 75.7354L115.587 71.7354L115.587 71.7354L115.587 75.7354ZM131.481 90.7461L135.481 90.7461L135.481 90.7461L131.481 90.7461ZM115.587 105.757L115.587 109.757H115.587V105.757ZM115.326 105.753L115.394 101.754L115.318 101.752L115.241 101.754L115.326 105.753ZM115.066 105.757L115.066 109.757L115.067 109.757L115.066 105.757ZM112.938 105.757V101.757H108.938V105.757H112.938ZM112.938 121.832L116.938 121.832V121.832H112.938ZM43 127.832L43 131.832H43V127.832ZM37 121.832L33 121.832L33 121.832L37 121.832ZM37 105.757V101.757H33V105.757H37ZM40.2705 105.753L40.3388 101.754L40.2623 101.752L40.1857 101.754L40.2705 105.753ZM41.415 105.757L41.415 109.757L41.4151 109.757L41.415 105.757ZM56.4258 90.7461L60.4258 90.7462L60.4258 90.746L56.4258 90.7461ZM41.415 75.7344L41.4151 71.7344H41.415V75.7344ZM40.2705 75.7373L40.1857 79.7364L40.2623 79.738L40.3388 79.7367L40.2705 75.7373ZM37 75.7344H33V79.7344H37V75.7344ZM37 62.3086L33 62.3083V62.3086H37ZM59.8545 56.3086V60.3086H65.3907L63.6521 55.0524L59.8545 56.3086ZM59.0752 51.4521L55.0752 51.4521V51.4521H59.0752ZM74.5273 36V40C80.8525 40 85.9803 45.1275 85.9805 51.4522L89.9805 51.4521L93.9805 51.4521C93.9802 40.7087 85.2703 32 74.5273 32V36ZM89.9805 51.4521H85.9805C85.9805 52.7138 85.7762 53.9227 85.4026 55.0524L89.2002 56.3086L92.9978 57.5648C93.6345 55.6401 93.9805 53.5836 93.9805 51.4521H89.9805ZM89.2002 56.3086V60.3086H106.938V56.3086V52.3086H89.2002V56.3086ZM106.938 56.3086V60.3086C108.042 60.3086 108.937 61.204 108.938 62.3089L112.938 62.3086L116.937 62.3083C116.937 56.7862 112.46 52.3086 106.938 52.3086V56.3086ZM112.938 62.3086H108.938V75.7354H112.938H116.938V62.3086H112.938ZM112.938 75.7354V79.7354H115.066V75.7354V71.7354H112.938V75.7354ZM115.066 75.7354L115.066 79.7354C115.12 79.7354 115.178 79.736 115.241 79.7374L115.326 75.7383L115.411 71.7392C115.302 71.7369 115.187 71.7354 115.067 71.7354L115.066 75.7354ZM115.326 75.7383L115.394 79.7377C115.485 79.7362 115.539 79.7354 115.587 79.7354L115.587 75.7354L115.587 71.7354C115.461 71.7354 115.341 71.7375 115.258 71.7389L115.326 75.7383ZM115.587 75.7354V79.7354H116.47V75.7354V71.7354H115.587V75.7354ZM116.47 75.7354V79.7354C122.551 79.7354 127.481 84.6652 127.481 90.7461L131.481 90.7461L135.481 90.7461C135.481 80.2463 126.969 71.7354 116.47 71.7354V75.7354ZM131.481 90.7461H127.481C127.481 96.827 122.551 101.757 116.47 101.757V105.757V109.757C126.969 109.757 135.481 101.246 135.481 90.7461H131.481ZM116.47 105.757V101.757H115.587V105.757V109.757H116.47V105.757ZM115.587 105.757L115.587 101.757C115.545 101.757 115.539 101.756 115.394 101.754L115.326 105.753L115.258 109.752C115.286 109.753 115.455 109.757 115.587 109.757L115.587 105.757ZM115.326 105.753L115.241 101.754C115.137 101.756 115.101 101.757 115.066 101.757L115.066 105.757L115.067 109.757C115.206 109.757 115.343 109.753 115.411 109.752L115.326 105.753ZM115.066 105.757V101.757H112.938V105.757V109.757H115.066V105.757ZM112.938 105.757H108.938V121.832H112.938H116.938V105.757H112.938ZM112.938 121.832L108.938 121.832C108.937 122.937 108.042 123.832 106.938 123.832V127.832V131.832C112.46 131.832 116.937 127.355 116.937 121.832L112.938 121.832ZM106.938 127.832V123.832H43V127.832V131.832H106.938V127.832ZM43 127.832L43 123.832C41.8957 123.832 41.0001 122.937 41 121.832L37 121.832L33 121.832C33.0003 127.355 37.4771 131.832 43 131.832L43 127.832ZM37 121.832H41V105.757H37H33V121.832H37ZM37 105.757V109.757H40.0107V105.757V101.757H37V105.757ZM40.0107 105.757V109.757C40.1501 109.757 40.2874 109.753 40.3554 109.752L40.2705 105.753L40.1857 101.754C40.081 101.756 40.0448 101.757 40.0107 101.757V105.757ZM40.2705 105.753L40.2022 109.752C40.2323 109.753 40.3996 109.757 40.5322 109.757V105.757V101.757C40.4901 101.757 40.4828 101.756 40.3388 101.754L40.2705 105.753ZM40.5322 105.757V109.757H41.415V105.757V101.757H40.5322V105.757ZM41.415 105.757L41.4151 109.757C51.9145 109.757 60.4255 101.245 60.4258 90.7462L56.4258 90.7461L52.4258 90.746C52.4256 96.8272 47.496 101.757 41.415 101.757L41.415 105.757ZM56.4258 90.7461L60.4258 90.746C60.4255 80.2472 51.9148 71.7344 41.4151 71.7344L41.415 75.7344L41.415 79.7344C47.4957 79.7344 52.4256 84.6647 52.4258 90.7462L56.4258 90.7461ZM41.415 75.7344V71.7344H40.5322V75.7344V79.7344H41.415V75.7344ZM40.5322 75.7344V71.7344C40.4058 71.7344 40.2858 71.7365 40.2022 71.7379L40.2705 75.7373L40.3388 79.7367C40.4293 79.7352 40.4839 79.7344 40.5322 79.7344V75.7344ZM40.2705 75.7373L40.3553 71.7382C40.2465 71.7359 40.1309 71.7344 40.0107 71.7344V75.7344V79.7344C40.064 79.7344 40.122 79.7351 40.1857 79.7364L40.2705 75.7373ZM40.0107 75.7344V71.7344H37V75.7344V79.7344H40.0107V75.7344ZM37 75.7344H41V62.3086H37H33V75.7344H37ZM37 62.3086L41 62.3089C41.0001 61.204 41.8959 60.3086 43 60.3086V56.3086V52.3086C37.477 52.3086 33.0004 56.7862 33 62.3083L37 62.3086ZM43 56.3086V60.3086H59.8545V56.3086V52.3086H43V56.3086ZM59.8545 56.3086L63.6521 55.0524C63.279 53.9243 63.0752 52.7153 63.0752 51.4521H59.0752H55.0752C55.0752 53.582 55.4197 55.6386 56.0569 57.5648L59.8545 56.3086ZM59.0752 51.4521L63.0752 51.4522C63.0753 45.1273 68.2026 40.0001 74.5274 40L74.5273 36L74.5273 32C63.7842 32.0001 55.0755 40.7091 55.0752 51.4521L59.0752 51.4521Z" fill="black" mask="url(#path-2-inside-1_4_2)"/>
<path d="M74.5273 36L74.5273 34L74.5273 34L74.5273 36ZM89.9805 51.4521L91.9805 51.4521L91.9805 51.4521L89.9805 51.4521ZM89.2002 56.3086L87.3014 55.6805L86.4321 58.3086H89.2002V56.3086ZM112.938 62.3086L114.938 62.3086L114.937 62.3085L112.938 62.3086ZM112.938 75.7354H110.938V77.7354H112.938V75.7354ZM115.066 75.7354L115.066 73.7354H115.066V75.7354ZM115.326 75.7383L115.284 77.7378L115.322 77.7386L115.36 77.738L115.326 75.7383ZM115.587 75.7354L115.587 73.7354L115.587 73.7354L115.587 75.7354ZM131.481 90.7461L133.481 90.7461L133.481 90.7461L131.481 90.7461ZM115.587 105.757L115.587 107.757H115.587V105.757ZM115.326 105.753L115.36 103.753L115.322 103.753L115.284 103.753L115.326 105.753ZM115.066 105.757L115.066 107.757L115.066 107.757L115.066 105.757ZM112.938 105.757V103.757H110.938V105.757H112.938ZM112.938 121.832L114.938 121.832V121.832H112.938ZM43 127.832L43 129.832H43V127.832ZM37 121.832L35 121.832L35 121.832L37 121.832ZM37 105.757V103.757H35V105.757H37ZM40.2705 105.753L40.3047 103.753L40.2664 103.753L40.2281 103.753L40.2705 105.753ZM41.415 105.757L41.415 107.757L41.415 107.757L41.415 105.757ZM56.4258 90.7461L58.4258 90.7461L58.4258 90.746L56.4258 90.7461ZM41.415 75.7344L41.415 73.7344H41.415V75.7344ZM40.2705 75.7373L40.2281 77.7369L40.2664 77.7377L40.3047 77.737L40.2705 75.7373ZM37 75.7344H35V77.7344H37V75.7344ZM37 62.3086L35 62.3085V62.3086H37ZM59.8545 56.3086V58.3086H62.6226L61.7533 55.6805L59.8545 56.3086ZM59.0752 51.4521L57.0752 51.4521V51.4521H59.0752ZM74.5273 36V38C81.9569 38 87.9803 44.0228 87.9805 51.4522L89.9805 51.4521L91.9805 51.4521C91.9802 41.8134 84.1658 34 74.5273 34V36ZM89.9805 51.4521H87.9805C87.9805 52.9313 87.7408 54.3521 87.3014 55.6805L89.2002 56.3086L91.099 56.9367C91.6699 55.2107 91.9805 53.3662 91.9805 51.4521H89.9805ZM89.2002 56.3086V58.3086H106.938V56.3086V54.3086H89.2002V56.3086ZM106.938 56.3086V58.3086C109.146 58.3086 110.937 60.0995 110.938 62.3087L112.938 62.3086L114.937 62.3085C114.937 57.8906 111.356 54.3086 106.938 54.3086V56.3086ZM112.938 62.3086H110.938V75.7354H112.938H114.938V62.3086H112.938ZM112.938 75.7354V77.7354H115.066V75.7354V73.7354H112.938V75.7354ZM115.066 75.7354L115.066 77.7354C115.137 77.7354 115.209 77.7362 115.284 77.7378L115.326 75.7383L115.369 73.7387C115.271 73.7367 115.17 73.7354 115.066 73.7354L115.066 75.7354ZM115.326 75.7383L115.36 77.738C115.449 77.7365 115.519 77.7354 115.587 77.7354L115.587 75.7354L115.587 73.7354C115.48 73.7354 115.377 73.7371 115.292 73.7386L115.326 75.7383ZM115.587 75.7354V77.7354H116.47V75.7354V73.7354H115.587V75.7354ZM116.47 75.7354V77.7354C123.656 77.7354 129.481 83.5605 129.481 90.7461L131.481 90.7461L133.481 90.7461C133.481 81.351 125.864 73.7354 116.47 73.7354V75.7354ZM131.481 90.7461H129.481C129.481 97.9317 123.656 103.757 116.47 103.757V105.757V107.757C125.864 107.757 133.481 100.141 133.481 90.7461H131.481ZM116.47 105.757V103.757H115.587V105.757V107.757H116.47V105.757ZM115.587 105.757L115.587 103.757C115.522 103.757 115.476 103.755 115.36 103.753L115.326 105.753L115.292 107.753C115.35 107.754 115.477 107.757 115.587 107.757L115.587 105.757ZM115.326 105.753L115.284 103.753C115.188 103.755 115.127 103.757 115.066 103.757L115.066 105.757L115.066 107.757C115.18 107.757 115.291 107.754 115.369 107.752L115.326 105.753ZM115.066 105.757V103.757H112.938V105.757V107.757H115.066V105.757ZM112.938 105.757H110.938V121.832H112.938H114.938V105.757H112.938ZM112.938 121.832L110.938 121.832C110.937 124.041 109.146 125.832 106.938 125.832V127.832V129.832C111.356 129.832 114.937 126.25 114.937 121.832L112.938 121.832ZM106.938 127.832V125.832H43V127.832V129.832H106.938V127.832ZM43 127.832L43 125.832C40.7911 125.832 39.0001 124.041 39 121.832L37 121.832L35 121.832C35.0002 126.25 38.5817 129.832 43 129.832L43 127.832ZM37 121.832H39V105.757H37H35V121.832H37ZM37 105.757V107.757H40.0107V105.757V103.757H37V105.757ZM40.0107 105.757V107.757C40.1238 107.757 40.2358 107.754 40.3129 107.752L40.2705 105.753L40.2281 103.753C40.1326 103.755 40.0711 103.757 40.0107 103.757V105.757ZM40.2705 105.753L40.2363 107.753C40.2949 107.754 40.4222 107.757 40.5322 107.757V105.757V103.757C40.4675 103.757 40.4202 103.755 40.3047 103.753L40.2705 105.753ZM40.5322 105.757V107.757H41.415V105.757V103.757H40.5322V105.757ZM41.415 105.757L41.415 107.757C50.8099 107.757 58.4255 100.141 58.4258 90.7461L56.4258 90.7461L54.4258 90.746C54.4256 97.9317 48.6006 103.757 41.415 103.757L41.415 105.757ZM56.4258 90.7461L58.4258 90.746C58.4255 81.3516 50.81 73.7344 41.415 73.7344L41.415 75.7344L41.415 77.7344C48.6004 77.7344 54.4256 83.5603 54.4258 90.7462L56.4258 90.7461ZM41.415 75.7344V73.7344H40.5322V75.7344V77.7344H41.415V75.7344ZM40.5322 75.7344V73.7344C40.4253 73.7344 40.3216 73.7361 40.2363 73.7376L40.2705 75.7373L40.3047 77.737C40.3934 77.7355 40.4644 77.7344 40.5322 77.7344V75.7344ZM40.2705 75.7373L40.3129 73.7378C40.2154 73.7357 40.1142 73.7344 40.0107 73.7344V75.7344V77.7344C40.0807 77.7344 40.1531 77.7353 40.2281 77.7369L40.2705 75.7373ZM40.0107 75.7344V73.7344H37V75.7344V77.7344H40.0107V75.7344ZM37 75.7344H39V62.3086H37H35V75.7344H37ZM37 62.3086L39 62.3087C39.0002 60.0995 40.7911 58.3086 43 58.3086V56.3086V54.3086C38.5817 54.3086 35.0003 57.8906 35 62.3085L37 62.3086ZM43 56.3086V58.3086H59.8545V56.3086V54.3086H43V56.3086ZM59.8545 56.3086L61.7533 55.6805C61.3142 54.3528 61.0752 52.932 61.0752 51.4521H59.0752H57.0752C57.0752 53.3654 57.3845 55.21 57.9557 56.9367L59.8545 56.3086ZM59.0752 51.4521L61.0752 51.4522C61.0754 44.0227 67.098 38.0001 74.5274 38L74.5273 36L74.5273 34C64.8888 34.0001 57.0754 41.8136 57.0752 51.4521L59.0752 51.4521Z" fill="white"/>
<mask id="path-5-outside-2_4_2" maskUnits="userSpaceOnUse" x="35" y="34" width="99" height="96" fill="black">
<rect fill="white" x="35" y="34" width="99" height="96"/>
<path d="M74.5273 36C83.0614 36 89.9803 42.9181 89.9805 51.4521C89.9805 53.1487 89.7054 54.7814 89.2002 56.3086H106.938C110.251 56.3086 112.937 58.9951 112.938 62.3086V75.7354H115.066C115.153 75.7354 115.24 75.7364 115.326 75.7383C115.413 75.7368 115.5 75.7354 115.587 75.7354H116.47C124.76 75.7354 131.481 82.4557 131.481 90.7461C131.481 99.0365 124.76 105.757 116.47 105.757H115.587C115.5 105.757 115.413 105.754 115.326 105.753C115.24 105.755 115.153 105.757 115.066 105.757H112.938V121.832C112.937 125.146 110.251 127.832 106.938 127.832H43C39.6864 127.832 37.0002 125.146 37 121.832V105.757H40.0107C40.0975 105.757 40.1842 105.755 40.2705 105.753C40.3575 105.754 40.4449 105.757 40.5322 105.757H41.415C49.7052 105.757 56.4256 99.0363 56.4258 90.7461C56.4255 82.4559 49.7052 75.7344 41.415 75.7344H40.5322C40.4449 75.7344 40.3575 75.7358 40.2705 75.7373C40.1842 75.7355 40.0975 75.7344 40.0107 75.7344H37V62.3086C37.0002 58.9951 39.6864 56.3086 43 56.3086H59.8545C59.3493 54.7814 59.0752 53.1487 59.0752 51.4521C59.0754 42.9182 65.9934 36.0001 74.5273 36Z"/>
</mask>
<path d="M74.5273 36L74.5273 34L74.5273 34L74.5273 36ZM89.9805 51.4521L91.9805 51.4521L91.9805 51.4521L89.9805 51.4521ZM89.2002 56.3086L87.3014 55.6805L86.4321 58.3086H89.2002V56.3086ZM112.938 62.3086L114.938 62.3086L114.937 62.3085L112.938 62.3086ZM112.938 75.7354H110.938V77.7354H112.938V75.7354ZM115.066 75.7354L115.066 73.7354H115.066V75.7354ZM115.326 75.7383L115.284 77.7378L115.322 77.7386L115.36 77.738L115.326 75.7383ZM115.587 75.7354L115.587 73.7354L115.587 73.7354L115.587 75.7354ZM131.481 90.7461L133.481 90.7461L133.481 90.7461L131.481 90.7461ZM115.587 105.757L115.587 107.757H115.587V105.757ZM115.326 105.753L115.36 103.753L115.322 103.753L115.284 103.753L115.326 105.753ZM115.066 105.757L115.066 107.757L115.066 107.757L115.066 105.757ZM112.938 105.757V103.757H110.938V105.757H112.938ZM112.938 121.832L114.938 121.832V121.832H112.938ZM43 127.832L43 129.832H43V127.832ZM37 121.832L35 121.832L35 121.832L37 121.832ZM37 105.757V103.757H35V105.757H37ZM40.2705 105.753L40.3047 103.753L40.2664 103.753L40.2281 103.753L40.2705 105.753ZM41.415 105.757L41.415 107.757L41.415 107.757L41.415 105.757ZM56.4258 90.7461L58.4258 90.7461L58.4258 90.746L56.4258 90.7461ZM41.415 75.7344L41.415 73.7344H41.415V75.7344ZM40.2705 75.7373L40.2281 77.7369L40.2664 77.7377L40.3047 77.737L40.2705 75.7373ZM37 75.7344H35V77.7344H37V75.7344ZM37 62.3086L35 62.3085V62.3086H37ZM59.8545 56.3086V58.3086H62.6226L61.7533 55.6805L59.8545 56.3086ZM59.0752 51.4521L57.0752 51.4521V51.4521H59.0752ZM74.5273 36V38C81.9569 38 87.9803 44.0228 87.9805 51.4522L89.9805 51.4521L91.9805 51.4521C91.9802 41.8134 84.1658 34 74.5273 34V36ZM89.9805 51.4521H87.9805C87.9805 52.9313 87.7408 54.3521 87.3014 55.6805L89.2002 56.3086L91.099 56.9367C91.6699 55.2107 91.9805 53.3662 91.9805 51.4521H89.9805ZM89.2002 56.3086V58.3086H106.938V56.3086V54.3086H89.2002V56.3086ZM106.938 56.3086V58.3086C109.146 58.3086 110.937 60.0995 110.938 62.3087L112.938 62.3086L114.937 62.3085C114.937 57.8906 111.356 54.3086 106.938 54.3086V56.3086ZM112.938 62.3086H110.938V75.7354H112.938H114.938V62.3086H112.938ZM112.938 75.7354V77.7354H115.066V75.7354V73.7354H112.938V75.7354ZM115.066 75.7354L115.066 77.7354C115.137 77.7354 115.209 77.7362 115.284 77.7378L115.326 75.7383L115.369 73.7387C115.271 73.7367 115.17 73.7354 115.066 73.7354L115.066 75.7354ZM115.326 75.7383L115.36 77.738C115.449 77.7365 115.519 77.7354 115.587 77.7354L115.587 75.7354L115.587 73.7354C115.48 73.7354 115.377 73.7371 115.292 73.7386L115.326 75.7383ZM115.587 75.7354V77.7354H116.47V75.7354V73.7354H115.587V75.7354ZM116.47 75.7354V77.7354C123.656 77.7354 129.481 83.5605 129.481 90.7461L131.481 90.7461L133.481 90.7461C133.481 81.351 125.864 73.7354 116.47 73.7354V75.7354ZM131.481 90.7461H129.481C129.481 97.9317 123.656 103.757 116.47 103.757V105.757V107.757C125.864 107.757 133.481 100.141 133.481 90.7461H131.481ZM116.47 105.757V103.757H115.587V105.757V107.757H116.47V105.757ZM115.587 105.757L115.587 103.757C115.522 103.757 115.476 103.755 115.36 103.753L115.326 105.753L115.292 107.753C115.35 107.754 115.477 107.757 115.587 107.757L115.587 105.757ZM115.326 105.753L115.284 103.753C115.188 103.755 115.127 103.757 115.066 103.757L115.066 105.757L115.066 107.757C115.18 107.757 115.291 107.754 115.369 107.752L115.326 105.753ZM115.066 105.757V103.757H112.938V105.757V107.757H115.066V105.757ZM112.938 105.757H110.938V121.832H112.938H114.938V105.757H112.938ZM112.938 121.832L110.938 121.832C110.937 124.041 109.146 125.832 106.938 125.832V127.832V129.832C111.356 129.832 114.937 126.25 114.937 121.832L112.938 121.832ZM106.938 127.832V125.832H43V127.832V129.832H106.938V127.832ZM43 127.832L43 125.832C40.7911 125.832 39.0001 124.041 39 121.832L37 121.832L35 121.832C35.0002 126.25 38.5817 129.832 43 129.832L43 127.832ZM37 121.832H39V105.757H37H35V121.832H37ZM37 105.757V107.757H40.0107V105.757V103.757H37V105.757ZM40.0107 105.757V107.757C40.1238 107.757 40.2358 107.754 40.3129 107.752L40.2705 105.753L40.2281 103.753C40.1326 103.755 40.0711 103.757 40.0107 103.757V105.757ZM40.2705 105.753L40.2363 107.753C40.2949 107.754 40.4222 107.757 40.5322 107.757V105.757V103.757C40.4675 103.757 40.4202 103.755 40.3047 103.753L40.2705 105.753ZM40.5322 105.757V107.757H41.415V105.757V103.757H40.5322V105.757ZM41.415 105.757L41.415 107.757C50.8099 107.757 58.4255 100.141 58.4258 90.7461L56.4258 90.7461L54.4258 90.746C54.4256 97.9317 48.6006 103.757 41.415 103.757L41.415 105.757ZM56.4258 90.7461L58.4258 90.746C58.4255 81.3516 50.81 73.7344 41.415 73.7344L41.415 75.7344L41.415 77.7344C48.6004 77.7344 54.4256 83.5603 54.4258 90.7462L56.4258 90.7461ZM41.415 75.7344V73.7344H40.5322V75.7344V77.7344H41.415V75.7344ZM40.5322 75.7344V73.7344C40.4253 73.7344 40.3216 73.7361 40.2363 73.7376L40.2705 75.7373L40.3047 77.737C40.3934 77.7355 40.4644 77.7344 40.5322 77.7344V75.7344ZM40.2705 75.7373L40.3129 73.7378C40.2154 73.7357 40.1142 73.7344 40.0107 73.7344V75.7344V77.7344C40.0807 77.7344 40.1531 77.7353 40.2281 77.7369L40.2705 75.7373ZM40.0107 75.7344V73.7344H37V75.7344V77.7344H40.0107V75.7344ZM37 75.7344H39V62.3086H37H35V75.7344H37ZM37 62.3086L39 62.3087C39.0002 60.0995 40.7911 58.3086 43 58.3086V56.3086V54.3086C38.5817 54.3086 35.0003 57.8906 35 62.3085L37 62.3086ZM43 56.3086V58.3086H59.8545V56.3086V54.3086H43V56.3086ZM59.8545 56.3086L61.7533 55.6805C61.3142 54.3528 61.0752 52.932 61.0752 51.4521H59.0752H57.0752C57.0752 53.3654 57.3845 55.21 57.9557 56.9367L59.8545 56.3086ZM59.0752 51.4521L61.0752 51.4522C61.0754 44.0227 67.098 38.0001 74.5274 38L74.5273 36L74.5273 34C64.8888 34.0001 57.0754 41.8136 57.0752 51.4521L59.0752 51.4521Z" fill="black" mask="url(#path-5-outside-2_4_2)"/>
<rect x="125.135" y="122.952" width="94.8652" height="84.0479" rx="8" stroke="black" stroke-width="4"/>
<rect x="127.135" y="124.952" width="90.8652" height="80.0479" rx="6" stroke="white" stroke-width="4"/>
<rect x="128.135" y="125.952" width="88.8652" height="78.0479" rx="5" stroke="black" stroke-width="2"/>
<rect x="164.581" y="186.045" width="42.1073" height="6.3799" rx="3.18995" stroke="black" stroke-width="2"/>
<path d="M136.236 139.529L135.529 138.822L135.529 138.822L136.236 139.529ZM140.452 139.529L141.159 138.822L141.159 138.822L140.452 139.529ZM164.061 163.139L164.768 162.432L164.768 162.432L164.061 163.139ZM164.584 166.647L163.701 166.176L163.687 166.203L163.674 166.231L164.584 166.647ZM163.983 167.517L163.276 166.81L163.276 166.81L163.983 167.517ZM140.375 191.126L141.082 191.833L141.082 191.833L140.375 191.126ZM136.159 191.126L135.452 191.833L135.452 191.833L136.159 191.126ZM136.159 186.91L135.452 186.203L135.452 186.203L136.159 186.91ZM157.779 165.288L158.486 165.995L159.193 165.288L158.486 164.581L157.779 165.288ZM136.236 143.745L135.529 144.452L135.529 144.452L136.236 143.745ZM136.236 139.529L136.943 140.236C137.717 139.463 138.971 139.463 139.745 140.237L140.452 139.529L141.159 138.822C139.604 137.268 137.084 137.268 135.529 138.822L136.236 139.529ZM140.452 139.529L139.745 140.236L163.354 163.846L164.061 163.139L164.768 162.432L141.159 138.822L140.452 139.529ZM164.061 163.139L163.354 163.846C163.983 164.475 164.101 165.426 163.701 166.176L164.584 166.647L165.466 167.117C166.267 165.613 166.038 163.702 164.768 162.432L164.061 163.139ZM164.584 166.647L163.674 166.231C163.576 166.446 163.444 166.641 163.276 166.81L163.983 167.517L164.69 168.224C165.04 167.874 165.304 167.477 165.493 167.062L164.584 166.647ZM163.983 167.517L163.276 166.81L139.668 190.419L140.375 191.126L141.082 191.833L164.69 168.224L163.983 167.517ZM140.375 191.126L139.668 190.419C138.894 191.192 137.64 191.192 136.866 190.419L136.159 191.126L135.452 191.833C137.006 193.388 139.527 193.388 141.082 191.833L140.375 191.126ZM136.159 191.126L136.866 190.419C136.092 189.645 136.092 188.391 136.866 187.617L136.159 186.91L135.452 186.203C133.897 187.758 133.897 190.278 135.452 191.833L136.159 191.126ZM136.159 186.91L136.866 187.617L158.486 165.995L157.779 165.288L157.072 164.581L135.452 186.203L136.159 186.91ZM157.779 165.288L158.486 164.581L136.943 143.038L136.236 143.745L135.529 144.452L157.072 165.995L157.779 165.288ZM136.236 143.745L136.943 143.038C136.17 142.264 136.17 141.01 136.943 140.236L136.236 139.529L135.529 138.822C133.974 140.377 133.974 142.898 135.529 144.452L136.236 143.745Z" fill="black"/>
</svg>
